<svg enable-background="new 0 0 59 59" viewBox="0 0 59 59" xmlns="http://www.w3.org/2000/svg"><path d="m56.1 29.5h-1v-20.6c0-2.7-2.2-4.9-4.9-4.9h-41.3c-2.7 0-4.9 2.2-4.9 4.9v14.8h-1c-1.6 0-3 1.3-3 3v25.6c0 1.6 1.3 3 3 3h37.4c.5 0 1-.4 1-1 0-2.7-2.2-4.9-4.9-4.9h-3v-5.9h11.8v8.9c0 1.6 1.3 3 3 3h7.9c1.6 0 3-1.3 3-3v-19.9c-.2-1.7-1.5-3-3.1-3zm-34.5 22.6c0 .5-.4 1-1 1h-17.6c-.5 0-1-.4-1-1v-1h19.7v1zm0-2.9h-19.6v-22.6c0-.5.4-1 1-1h17.7c.5 0 1 .4 1 1v22.6zm14.8 1.9c1.3 0 2.4.8 2.8 2h-15.8c.1-.3.2-.6.2-1v-1zm-12.8-1.9v-5.9h2v5.9zm3.9 0v-5.9h3.9v5.9zm17.7-7.9h-21.6v-5.9h21.6zm-23.3-17.5s0 .1 0 0c-.4-.1-.9-.2-1.3-.2h-14.7v-14.7c0-1.6 1.3-3 3-3h41.3c1.6 0 3 1.3 3 3v20.7h-4.9c-1.6 0-3 1.3-3 3v1h-21.7v-6.9c0-.5-.1-.9-.3-1.3m33.7 26.7c0 .5-.4 1-1 1h-7.9c-.5 0-1-.4-1-1v-1h9.9zm0-2.9h-9.8v-16.7c0-.5.4-1 1-1h7.9c.5 0 1 .4 1 1v16.7z" fill="#0fbcf5"/></svg>